<?xml version="1.0" encoding="UTF-8"?>
<svg version="1.1" xmlns="http://www.w3.org/2000/svg" width="16" height="16">
<path d="M0 0 C1.4540625 0.0309375 1.4540625 0.0309375 2.9375 0.0625 C2.9375 3.0325 2.9375 6.0025 2.9375 9.0625 C2.2775 9.0625 1.6175 9.0625 0.9375 9.0625 C0.9375 11.3725 0.9375 13.6825 0.9375 16.0625 C-3.0225 16.0625 -6.9825 16.0625 -11.0625 16.0625 C-11.33035714 5.88392857 -11.33035714 5.88392857 -9.0625 2.0625 C-8.0725 2.3925 -7.0825 2.7225 -6.0625 3.0625 C-6.0625 4.0525 -6.0625 5.0425 -6.0625 6.0625 C-5.4025 6.0625 -4.7425 6.0625 -4.0625 6.0625 C-4.083125 5.258125 -4.10375 4.45375 -4.125 3.625 C-4.03366838 -0.11959638 -3.80090148 0.07756942 0 0 Z " fill="#000000" transform="translate(13.0625,-0.0625)"/>
<path d="M0 0 C1.32 0 2.64 0 4 0 C4 2.31 4 4.62 4 7 C2.02 7 0.04 7 -2 7 C-1.34 4.69 -0.68 2.38 0 0 Z " fill="#BC8F50" transform="translate(10,0)"/>
<path d="M0 0 C0.99 0.33 1.98 0.66 3 1 C3 2.32 3 3.64 3 5 C1.68 5 0.36 5 -1 5 C-0.67 3.35 -0.34 1.7 0 0 Z " fill="#879099" transform="translate(4,2)"/>
</svg>
